<svg width="15" height="15" viewBox="0 0 15 15" fill="none" xmlns="http://www.w3.org/2000/svg">
<g id="categories 1">
<path id="Vector" d="M6.79688 2.57812V5.85938C6.79688 6.10802 6.6981 6.34647 6.52229 6.52229C6.34647 6.6981 6.10802 6.79688 5.85938 6.79688H2.57812C2.32948 6.79688 2.09103 6.6981 1.91521 6.52229C1.7394 6.34647 1.64063 6.10802 1.64062 5.85938V2.57812C1.64062 2.32948 1.7394 2.09103 1.91521 1.91521C2.09103 1.7394 2.32948 1.64063 2.57812 1.64062H5.85938C6.10802 1.64063 6.34647 1.7394 6.52229 1.91521C6.6981 2.09103 6.79688 2.32948 6.79688 2.57812ZM12.4219 1.64062H9.14062C8.89198 1.64063 8.65353 1.7394 8.47771 1.91521C8.3019 2.09103 8.20312 2.32948 8.20312 2.57812V5.85938C8.20312 6.10802 8.3019 6.34647 8.47771 6.52229C8.65353 6.6981 8.89198 6.79688 9.14062 6.79688H12.4219C12.6705 6.79688 12.909 6.6981 13.0848 6.52229C13.2606 6.34647 13.3594 6.10802 13.3594 5.85938V2.57812C13.3594 2.32948 13.2606 2.09103 13.0848 1.91521C12.909 1.7394 12.6705 1.64063 12.4219 1.64062ZM5.85938 8.20312H2.57812C2.32948 8.20312 2.09103 8.3019 1.91521 8.47771C1.7394 8.65353 1.64063 8.89198 1.64062 9.14062V12.4219C1.64063 12.6705 1.7394 12.909 1.91521 13.0848C2.09103 13.2606 2.32948 13.3594 2.57812 13.3594H5.85938C6.10802 13.3594 6.34647 13.2606 6.52229 13.0848C6.6981 12.909 6.79688 12.6705 6.79688 12.4219V9.14062C6.79688 8.89198 6.6981 8.65353 6.52229 8.47771C6.34647 8.3019 6.10802 8.20312 5.85938 8.20312ZM10.7812 8.20312C10.2713 8.20312 9.77289 8.35433 9.34892 8.63762C8.92495 8.92091 8.59451 9.32355 8.39937 9.79464C8.20424 10.2657 8.15319 10.7841 8.25266 11.2842C8.35214 11.7843 8.59768 12.2437 8.95824 12.6043C9.3188 12.9648 9.77818 13.2104 10.2783 13.3098C10.7784 13.4093 11.2968 13.3583 11.7679 13.1631C12.2389 12.968 12.6416 12.6375 12.9249 12.2136C13.2082 11.7896 13.3594 11.2912 13.3594 10.7812C13.3594 10.0975 13.0878 9.44173 12.6043 8.95824C12.1208 8.47475 11.465 8.20312 10.7812 8.20312Z" fill="white"/>
</g>
</svg>
