<svg xmlns="http://www.w3.org/2000/svg" width="24" height="24" viewBox="0 0 24 24" fill="none">
<g clip-path="url(#clip0_0_5050)">
<path d="M12 24.0001C18.6275 24.0001 24.0001 18.6275 24.0001 12C24.0001 5.3726 18.6275 0 12 0C5.3726 0 0 5.3726 0 12C0 18.6275 5.3726 24.0001 12 24.0001Z" fill="#E24C4B"/>
<path d="M24 12C24 18.6 18.6 24 12 24C8.17503 24 4.80003 22.275 2.625 19.5C4.65 21.15 7.27501 22.125 10.125 22.125C16.725 22.125 22.125 16.725 22.125 10.125C22.125 7.27501 21.15 4.65 19.5 2.625C22.275 4.79992 24 8.17493 24 12Z" fill="#D1403F"/>
<path d="M18.5252 8.5501L10.7252 17.1001C10.2001 17.7002 9.30017 17.7002 8.77515 17.1001L5.47514 13.4251C5.02516 12.9001 5.02516 12.0751 5.55013 11.5501C6.07515 11.1001 6.90013 11.1001 7.42515 11.6251L9.75016 14.2501L16.5751 6.82511C17.1002 6.30009 17.9251 6.2251 18.4502 6.75012C18.9751 7.2001 18.9751 8.10012 18.5252 8.5501Z" fill="white"/>
</g>
<defs>
<clipPath id="clip0_0_5050">
<rect width="24" height="24" fill="white"/>
</clipPath>
</defs>
</svg>