<svg xmlns="http://www.w3.org/2000/svg" width="13" height="8" viewBox="0 0 13 8" fill="none">
<path d="M6.51784 4.67434L10.8276 0.191384C10.946 0.0679456 11.1043 3.93989e-05 11.2731 3.93917e-05C11.4419 3.93844e-05 11.6001 0.0679456 11.7187 0.191384L12.0961 0.584205C12.2149 0.707448 12.2803 0.872196 12.2803 1.04776C12.2803 1.22332 12.2149 1.38787 12.0961 1.51121L6.96496 6.84889C6.84602 6.97272 6.68708 7.04052 6.51812 7.04004C6.34841 7.04052 6.18966 6.97281 6.07062 6.84889L0.944407 1.51618C0.825648 1.39284 0.760274 1.22829 0.760274 1.05263C0.760274 0.877068 0.825648 0.712516 0.944407 0.589077L1.32185 0.196353C1.56752 -0.0591953 1.96744 -0.0591953 2.21301 0.196353L6.51784 4.67434Z" fill="#353535"/>
</svg>