<svg width="18" height="18" viewBox="0 0 18 18" fill="none" xmlns="http://www.w3.org/2000/svg">
<g id="fi-br-caret-right">
<path id="Vector" d="M6.75 13.4091V5.03011C6.75003 4.8818 6.79404 4.73683 6.87645 4.61352C6.95886 4.49021 7.07598 4.39411 7.21301 4.33736C7.35003 4.2806 7.50081 4.26575 7.64627 4.29468C7.79174 4.3236 7.92536 4.39501 8.03025 4.49986L12.2197 8.68936C12.3603 8.83001 12.4393 9.02074 12.4393 9.21961C12.4393 9.41849 12.3603 9.60922 12.2197 9.74986L8.03025 13.9394C7.92536 14.0442 7.79174 14.1156 7.64627 14.1446C7.50081 14.1735 7.35003 14.1586 7.21301 14.1019C7.07598 14.0451 6.95886 13.949 6.87645 13.8257C6.79404 13.7024 6.75003 13.5574 6.75 13.4091Z" fill="#FF8B00"/>
</g>
</svg>
