<svg xmlns="http://www.w3.org/2000/svg" width="65" height="64" viewBox="0 0 65 64" fill="none">
<path d="M37.5675 32.0097L19.6357 14.7705C19.1419 14.297 18.8703 13.6639 18.8703 12.9888C18.8703 12.3133 19.1419 11.6806 19.6357 11.2063L21.2069 9.6965C21.6999 9.22146 22.3589 8.95997 23.0611 8.95997C23.7634 8.95997 24.4216 9.22146 24.915 9.6965L46.2657 30.2212C46.761 30.697 47.0322 31.3327 47.0303 32.0086C47.0322 32.6874 46.7614 33.3224 46.2657 33.7986L24.9349 54.3034C24.4415 54.7785 23.7833 55.04 23.0806 55.04C22.3784 55.04 21.7202 54.7785 21.2264 54.3034L19.6555 52.7937C18.6333 51.811 18.6333 50.2113 19.6555 49.229L37.5675 32.0097Z" fill="#E32309"/>
</svg>