<svg width="16" height="16" viewBox="0 0 16 16" fill="none" xmlns="http://www.w3.org/2000/svg">
<g id="mail 1">
<g id="Group">
<g id="Group_2">
<path id="Vector" d="M15.8593 3.17871L11.0068 7.99993L15.8593 12.8211C15.947 12.6378 16.0002 12.4351 16.0002 12.2187V3.78118C16.0002 3.56471 15.947 3.36205 15.8593 3.17871Z" fill="#FF8B00"/>
</g>
</g>
<g id="Group_3">
<g id="Group_4">
<path id="Vector_2" d="M14.5937 2.375H1.40618C1.18971 2.375 0.987055 2.42822 0.803711 2.51594L7.00568 8.68666C7.55406 9.23503 8.4458 9.23503 8.99418 8.68666L15.1961 2.51594C15.0128 2.42822 14.8101 2.375 14.5937 2.375Z" fill="#FF8B00"/>
</g>
</g>
<g id="Group_5">
<g id="Group_6">
<path id="Vector_3" d="M0.140938 3.17871C0.0532188 3.36205 0 3.56471 0 3.78118V12.2187C0 12.4351 0.0532188 12.6378 0.140938 12.8211L4.99341 7.99993L0.140938 3.17871Z" fill="#FF8B00"/>
</g>
</g>
<g id="Group_7">
<g id="Group_8">
<path id="Vector_4" d="M10.3437 8.66309L9.65702 9.34974C8.7433 10.2635 7.25652 10.2635 6.3428 9.34974L5.65618 8.66309L0.803711 13.4843C0.987055 13.572 1.18971 13.6252 1.40618 13.6252H14.5937C14.8101 13.6252 15.0128 13.572 15.1961 13.4843L10.3437 8.66309Z" fill="#FF8B00"/>
</g>
</g>
</g>
</svg>
