<svg width="20" height="21" viewBox="0 0 20 21" fill="none" xmlns="http://www.w3.org/2000/svg">
<g id="Frame">
<path id="Vector" fill-rule="evenodd" clip-rule="evenodd" d="M11.6125 1.86104C10.6812 1.07497 9.3188 1.07497 8.38749 1.86104L7.53932 2.57692C7.14349 2.91102 6.65365 3.11394 6.1375 3.15759L5.03155 3.25111C3.81717 3.35381 2.85381 4.31717 2.75111 5.53155L2.65759 6.6375C2.61394 7.15365 2.41102 7.64349 2.07692 8.03934L1.36104 8.88749C0.574966 9.8188 0.574967 11.1812 1.36104 12.1125L2.07692 12.9607C2.41102 13.3565 2.61394 13.8464 2.65759 14.3625L2.75111 15.4685C2.85381 16.6829 3.81717 17.6462 5.03155 17.7489L6.1375 17.8424C6.65365 17.8861 7.14349 18.089 7.53934 18.4231L8.38749 19.139C9.3188 19.925 10.6812 19.925 11.6125 19.139L12.4607 18.4231C12.8565 18.089 13.3464 17.8861 13.8625 17.8424L14.9685 17.7489C16.1829 17.6462 17.1462 16.6829 17.2489 15.4685L17.3424 14.3625C17.3861 13.8464 17.589 13.3565 17.9231 12.9607L18.639 12.1125C19.425 11.1812 19.425 9.8188 18.639 8.88749L17.9231 8.03932C17.589 7.64349 17.3861 7.15365 17.3424 6.6375L17.2489 5.53155C17.1462 4.31717 16.1829 3.35381 14.9685 3.25111L13.8625 3.15759C13.3464 3.11394 12.8565 2.91102 12.4607 2.57692L11.6125 1.86104ZM14.546 8.79555C14.9854 8.35621 14.9854 7.6439 14.546 7.20456C14.1067 6.76521 13.3944 6.76521 12.955 7.20456L8.75054 11.4091L7.04604 9.70456C6.6067 9.26521 5.89439 9.26521 5.45505 9.70456C5.0157 10.1439 5.0157 10.8562 5.45505 11.2956L7.95505 13.7955C8.39439 14.2349 9.1067 14.2349 9.54604 13.7955L14.546 8.79555Z" fill="#E32309"/>
</g>
</svg>
